<svg xmlns="http://www.w3.org/2000/svg" xmlns:xlink="http://www.w3.org/1999/xlink" width="16" height="16"><defs><path d="M8 2.87A4.267 4.267 0 004.28.69C1.91.69 0 2.88 0 5.24c0 5.93 8 10.07 8 10.07s8-4.14 8-10.07C16 2.88 14.09.69 11.72.69c-1.54 0-2.96.83-3.72 2.18z" id="a"/><path d="M4.86.73a3.77 3.77 0 00-.58-.04C1.91.69 0 2.88 0 5.24c0 5.93 8 10.07 8 10.07s.21-.11.55-.31C6.74 13.94 1.1 10.22 1.1 5.24c0-2.18 1.64-4.22 3.76-4.51z" id="b"/></defs><use xlink:href="#a" fill="#ff6243"/><use xlink:href="#b" fill="#ff5023"/><use xlink:href="#b" fill-opacity="0" stroke="#000" stroke-opacity="0"/></svg>