<svg xmlns="http://www.w3.org/2000/svg" xmlns:xlink="http://www.w3.org/1999/xlink" width="16" height="3.72"><defs><path d="M12.76 2.87c-.04 0-.07-.02-.09-.05-.06-.09-.02-.18.05-.21l.01-.01.64-.25.13-.05v-.01h.02c.16-.07.27-.23.27-.42v-.01c0-.19-.11-.35-.27-.42h-.02l-.13-.06-.64-.25h-.01c-.07-.04-.11-.13-.05-.21.02-.04.05-.05.09-.05h1.17c.23-.01.42-.2.42-.43 0-.24-.18-.43-.42-.43h-1.38-.01a.93.93 0 00-.33 1.79c.06.02.06.11 0 .13a.93.93 0 00.33 1.79h1.39a.425.425 0 000-.85h-1.17z" id="a"/><path d="M15.14.44c0 .23.19.43.43.43s.43-.2.43-.43c0-.24-.19-.43-.43-.43s-.43.19-.43.43z" id="b"/><path d="M2.72 3.72a.55.55 0 01-.45-.22c-.09-.13-.81-1.11-.9-1.23-.16-.21-.48-.1-.48.15v.89c0 .23-.2.41-.44.41-.25 0-.45-.18-.45-.41V.52C0 .24.24.01.53.01.72.01.88.1.98.24l.92 1.23c.15.2.47.09.47-.16V.43c0-.23.2-.42.45-.42.24 0 .45.19.45.42v2.78c-.17.34-.35.51-.55.51z" id="c"/><path d="M5.02 3.41c-.06.19-.2.31-.46.31-.28 0-.44-.2-.44-.43 0-.05.02-.14.04-.19.09-.26.8-2.35.89-2.61.09-.27.27-.49.65-.49.39 0 .58.23.67.49.09.26.78 2.35.87 2.61.01.04.03.14.03.19 0 .27-.2.43-.47.43-.22 0-.39-.11-.45-.31 0-.02-.04-.16-.11-.39l-.23-.75c-.07-.25-.11-.38-.12-.41a.212.212 0 00-.41 0c-.01.02-.05.16-.12.41l-.22.75c-.07.23-.11.37-.12.39z" id="d"/><path d="M10.41.01c.26 0 .49.17.49.45 0 .05-.01.1-.04.16L9.85 3.24c-.1.26-.32.48-.67.48-.36 0-.58-.22-.67-.48-.1-.26-.88-2.35-.98-2.61a.777.777 0 01-.02-.16c0-.25.21-.46.49-.46.2 0 .37.12.45.31.05.16.49 1.46.54 1.62.07.19.34.19.41 0 .04-.11.22-.65.55-1.62.17-.21.33-.31.46-.31z" id="e"/></defs><use xlink:href="#a" fill="#1b162d"/><use xlink:href="#a" fill-opacity="0" stroke="#000" stroke-opacity="0"/><use xlink:href="#b" fill="#7f2bed"/><use xlink:href="#b" fill-opacity="0" stroke="#000" stroke-opacity="0"/><use xlink:href="#c" fill="#1b162d"/><use xlink:href="#c" fill-opacity="0" stroke="#000" stroke-opacity="0"/><g><use xlink:href="#d" fill="#1b162d"/><use xlink:href="#d" fill-opacity="0" stroke="#000" stroke-opacity="0"/></g><g><use xlink:href="#e" fill="#1b162d"/><use xlink:href="#e" fill-opacity="0" stroke="#000" stroke-opacity="0"/></g></svg>